<svg xmlns="http://www.w3.org/2000/svg" xmlns:xlink="http://www.w3.org/1999/xlink" width="200" zoomAndPan="magnify" viewBox="0 0 150 149.999998" height="200" preserveAspectRatio="xMidYMid meet" version="1.0"><defs><clipPath id="9d8e1616b2"><path d="M 1 15 L 147 15 L 147 138.75 L 1 138.75 Z M 1 15 " clip-rule="nonzero"/></clipPath><clipPath id="0383efd336"><path d="M 138.789062 76.972656 L 142.035156 73.542969 C 147.84375 67.398438 147.84375 57.402344 142.035156 51.261719 L 112.300781 19.816406 C 109.417969 16.769531 105.566406 15.089844 101.460938 15.089844 C 97.355469 15.09375 93.507812 16.769531 90.628906 19.816406 L 87.6875 22.929688 L 84.742188 19.816406 C 81.863281 16.769531 78.015625 15.089844 73.910156 15.089844 C 69.804688 15.089844 65.953125 16.769531 63.074219 19.816406 L 60.128906 22.929688 L 57.179688 19.8125 C 54.296875 16.769531 50.449219 15.089844 46.34375 15.089844 C 42.238281 15.089844 38.386719 16.769531 35.507812 19.816406 L 5.777344 51.261719 C -0.0273438 57.402344 -0.0273438 67.398438 5.78125 73.539062 L 9.027344 76.972656 L 5.78125 80.40625 C -0.0273438 86.546875 -0.0273438 96.539062 5.777344 102.683594 L 35.507812 134.125 C 38.390625 137.175781 42.238281 138.855469 46.34375 138.855469 C 50.449219 138.855469 54.296875 137.175781 57.179688 134.128906 L 60.125 131.011719 L 63.070312 134.128906 C 65.953125 137.175781 69.800781 138.855469 73.90625 138.855469 C 78.011719 138.855469 81.863281 137.175781 84.742188 134.128906 L 87.683594 131.015625 L 90.628906 134.128906 C 93.507812 137.175781 97.355469 138.851562 101.460938 138.851562 C 101.460938 138.851562 101.460938 138.851562 101.464844 138.851562 C 105.566406 138.851562 109.417969 137.175781 112.296875 134.128906 L 142.035156 102.683594 C 147.84375 96.542969 147.84375 86.546875 142.035156 80.402344 Z M 63.070312 116.390625 L 60.128906 119.503906 L 19.910156 76.972656 L 40.019531 55.707031 L 60.125 34.441406 L 63.070312 37.554688 C 63.480469 37.988281 63.914062 38.386719 64.363281 38.765625 C 65.09375 39.382812 65.867188 39.929688 66.683594 40.390625 C 66.6875 40.390625 66.6875 40.390625 66.691406 40.394531 C 67.566406 40.886719 68.484375 41.285156 69.433594 41.589844 C 69.445312 41.59375 69.457031 41.59375 69.46875 41.597656 C 70.414062 41.894531 71.386719 42.101562 72.378906 42.203125 C 72.632812 42.226562 72.894531 42.226562 73.152344 42.242188 C 73.402344 42.253906 73.652344 42.28125 73.90625 42.28125 C 74.933594 42.28125 75.941406 42.175781 76.925781 41.96875 C 79.875 41.355469 82.582031 39.839844 84.742188 37.554688 L 87.460938 34.679688 L 87.683594 34.441406 L 127.902344 76.972656 L 87.6875 119.507812 L 84.742188 116.390625 C 81.859375 113.34375 78.011719 111.667969 73.90625 111.667969 C 69.800781 111.664062 65.953125 113.34375 63.070312 116.390625 Z M 96.375 25.25 C 97.746094 23.800781 99.554688 23 101.464844 23 C 103.371094 23 105.179688 23.800781 106.554688 25.25 L 136.289062 56.695312 C 139.265625 59.839844 139.265625 64.960938 136.289062 68.105469 L 133.347656 71.21875 L 93.128906 28.683594 Z M 68.820312 25.25 C 70.191406 23.800781 72 23 73.910156 23 C 75.816406 23 77.625 23.800781 78.996094 25.25 L 82.242188 28.683594 L 78.996094 32.121094 C 78.136719 33.027344 77.109375 33.679688 75.996094 34.039062 C 75.324219 34.257812 74.625 34.371094 73.90625 34.371094 C 72 34.371094 70.191406 33.570312 68.820312 32.121094 L 65.570312 28.6875 Z M 11.527344 68.105469 C 8.550781 64.960938 8.550781 59.839844 11.527344 56.695312 L 41.253906 25.25 C 42.625 23.800781 44.433594 23 46.34375 23 C 48.253906 23 50.058594 23.800781 51.433594 25.25 L 54.683594 28.6875 L 34.578125 49.953125 L 14.46875 71.214844 Z M 46.34375 130.945312 C 44.433594 130.945312 42.625 130.144531 41.253906 128.691406 L 11.527344 97.25 C 8.550781 94.105469 8.550781 88.984375 11.527344 85.839844 L 14.46875 82.726562 L 54.683594 125.257812 L 51.429688 128.695312 C 50.0625 130.144531 48.253906 130.945312 46.34375 130.945312 Z M 73.910156 130.945312 C 72 130.945312 70.191406 130.144531 68.820312 128.695312 L 65.570312 125.257812 L 68.816406 121.824219 C 70.191406 120.371094 71.996094 119.574219 73.90625 119.574219 C 75.816406 119.574219 77.625 120.375 78.996094 121.824219 L 82.246094 125.261719 L 78.996094 128.695312 C 77.625 130.144531 75.816406 130.945312 73.910156 130.945312 Z M 136.289062 97.25 L 106.550781 128.695312 C 105.179688 130.144531 103.371094 130.945312 101.460938 130.945312 C 99.554688 130.945312 97.746094 130.144531 96.375 128.695312 L 93.128906 125.261719 L 133.347656 82.726562 L 136.289062 85.839844 C 139.265625 88.984375 139.265625 94.105469 136.289062 97.25 Z M 136.289062 97.25 " clip-rule="nonzero"/></clipPath></defs><g clip-path="url(#9d8e1616b2)"><g clip-path="url(#0383efd336)"><path fill="#9b8940" d="M 0 15.089844 L 0 138.75 L 147.75 138.75 L 147.75 15.089844 Z M 0 15.089844 " fill-opacity="1" fill-rule="nonzero"/></g></g></svg>